<?xml version="1.0" encoding="UTF-8"?>
<svg version="1.1" xmlns="http://www.w3.org/2000/svg" width="1024" height="1024">
<path d="M0 0 C3.00135612 -0.38031673 3.00135612 -0.38031673 6.93942261 -0.38768005 C7.66205957 -0.39306559 8.38469652 -0.39845113 9.12923157 -0.40399987 C11.56402675 -0.41836875 13.99828499 -0.41115353 16.43310547 -0.40405273 C18.17433105 -0.40975252 19.91555289 -0.41671526 21.6567688 -0.42485046 C26.40169699 -0.44286322 31.14644101 -0.44159556 35.89139318 -0.43590808 C39.86117642 -0.43282071 43.83092404 -0.4389053 47.80070221 -0.44494683 C57.18601239 -0.45902375 66.57123168 -0.45741109 75.95654297 -0.44604492 C85.59815644 -0.43462525 95.23948975 -0.44852778 104.8810662 -0.4754414 C113.17861019 -0.49772562 121.47606711 -0.50420544 129.77363884 -0.49836498 C134.71958164 -0.49501656 139.66534595 -0.49726507 144.61126328 -0.51461601 C149.28170703 -0.53028105 153.95174449 -0.52591709 158.62217331 -0.50731087 C160.31985913 -0.50367493 162.01757631 -0.50658379 163.71523285 -0.51719666 C190.35380532 -0.67075559 217.97741874 6.44248566 238 25 C242 29.52631579 242 29.52631579 242 32 C242.5775 32.19851563 243.155 32.39703125 243.75 32.6015625 C246.87447186 34.54350855 248.27316625 37.23134147 250 40.375 C250.34885254 41.00277344 250.69770508 41.63054687 251.05712891 42.27734375 C261.04603292 60.77012538 262.22223483 82.64042786 258 103 C255.34819884 111.77134228 250.77158701 119.88814906 245 127 C244.01 127.33 243.02 127.66 242 128 C241.31513275 129.32407669 240.65129797 130.65909241 240 132 C238 134.25 238 134.25 236 136 C235.34 136 234.68 136 234 136 C234 136.66 234 137.32 234 138 C231.67859563 139.69605891 229.37650234 141.23877283 226.9375 142.75 C226.22102295 143.19666016 225.5045459 143.64332031 224.76635742 144.10351562 C217.80299592 148.32290205 210.6466974 151.24309083 203 154 C201.33058082 154.65974376 199.66275113 155.32362666 198 156 C199.22332031 156.268125 200.44664062 156.53625 201.70703125 156.8125 C220.67470559 161.1505178 241.18683268 167.58431972 255 182 C256.10794922 183.07314453 256.10794922 183.07314453 257.23828125 184.16796875 C257.92277344 184.83441406 258.60726563 185.50085938 259.3125 186.1875 C260.00988281 186.86167969 260.70726562 187.53585937 261.42578125 188.23046875 C263 190 263 190 263 192 C263.99 192.33 264.98 192.66 266 193 C266 193.99 266 194.98 266 196 C266.66 196 267.32 196 268 196 C280.84532425 213.24943543 284.3342271 237.19650388 281.73632812 258.12402344 C281.08948914 262.15973623 280.10272998 266.06830387 279 270 C278.80664062 270.82886719 278.61328125 271.65773438 278.4140625 272.51171875 C276.28758481 280.86573826 271.96823704 288.4028526 268 296 C267.34 296 266.68 296 266 296 C265.67 297.32 265.34 298.64 265 300 C264.34 300 263.68 300 263 300 C262.6596875 300.8353125 262.6596875 300.8353125 262.3125 301.6875 C260.08037278 305.62029557 256.83112236 308.34283348 253.3125 311.125 C250.80846331 312.96561073 250.80846331 312.96561073 249 316 C248.01 316 247.02 316 246 316 C246 316.66 246 317.32 246 318 C235.34601584 324.4526149 224.89236197 329.30568311 213 333 C212.071875 333.30550781 211.14375 333.61101562 210.1875 333.92578125 C193.12079575 339.1257927 174.40138925 340.179757 156.6875 340.125 C155.50994141 340.12886719 154.33238281 340.13273437 153.11914062 340.13671875 C146.82735633 340.13024239 140.55197404 340.03627488 134.26538086 339.76855469 C117.18613737 339.05558168 100.13638447 338.91648267 83.04296875 338.9375 C81.84003111 338.93892879 80.63709347 338.94035759 79.39770317 338.94182968 C70.66094921 338.95412865 61.92422921 338.97626306 53.1875 339 C44.34725005 339.02366718 35.50701638 339.0439318 26.66674232 339.05593872 C23.14948292 339.06241891 19.6322775 339.07490412 16.11503601 339.08764648 C13.98839362 339.09127371 11.86175074 339.09462608 9.73510742 339.09765625 C8.75725281 339.10282257 7.77939819 339.10798889 6.77191162 339.11331177 C5.4465464 339.11341751 5.4465464 339.11341751 4.09440613 339.11352539 C3.32311465 339.115746 2.55182318 339.11796661 1.75715923 339.12025452 C0 339 0 339 -1 338 C-1.07226502 336.14712498 -1.0838122 334.29166122 -1.0625 332.4375 C-1.05347656 331.42558594 -1.04445313 330.41367187 -1.03515625 329.37109375 C-1.02355469 328.58863281 -1.01195312 327.80617188 -1 327 C2.8682018 324.50007171 7.04421151 324.52826393 11.5 324.1875 C21.01814691 323.2953536 30.44740495 321.54113309 37 314 C43.04256155 304.20552115 43.2906546 292.14301211 43.40966797 280.96948242 C43.42874332 279.82615511 43.44781868 278.6828278 43.46747208 277.5048542 C43.52719004 273.72596474 43.57277631 269.94706703 43.6171875 266.16796875 C43.63542864 264.83116829 43.65405808 263.49437308 43.67306137 262.15758324 C44.11757608 230.79971924 44.15366543 199.44040138 44.12857032 168.0799588 C44.12477889 162.79849798 44.1261817 157.51705586 44.13037109 152.2355957 C44.15227931 123.70548961 44.16770169 95.1740019 43.67306137 66.64723778 C43.63646721 64.53225266 43.60244694 62.41722107 43.57129288 60.30214882 C44.23601869 40.81542439 44.23601869 40.81542439 36.80517578 23.66552734 C30.12135223 17.49876452 22.45411034 15.97887305 13.6875 14.8125 C11.56558071 14.51228866 9.44443789 14.20652342 7.32421875 13.89453125 C6.39697998 13.76925049 5.46974121 13.64396973 4.5144043 13.51489258 C2.03930321 13.0080484 0.18867588 12.23936296 -2 11 C-2.25 3.375 -2.25 3.375 0 0 Z M100 20 C100 62.9 100 105.8 100 150 C146.59025336 152.49536607 146.59025336 152.49536607 186.2421875 132.87109375 C199.3724434 119.02238989 202.66607093 102.082467 202.46826172 83.59643555 C201.93428665 66.76224256 197.69515295 48.79157354 186 36 C185.34 36 184.68 36 184 36 C183.7525 35.4225 183.505 34.845 183.25 34.25 C178.80913673 26.25644611 168.29387209 21.91757491 159.84765625 19.34423828 C151.13184496 17.18327681 142.19770306 16.74043355 133.25 16.625 C132.45513184 16.61082031 131.66026367 16.59664063 130.84130859 16.58203125 C120.37782085 16.66334843 110.50411307 18.56762095 100 20 Z M100 168 C99.95304496 182.45702258 99.91803043 196.91403315 99.89637566 211.37111664 C99.88611232 218.08549252 99.87189237 224.7998137 99.84912109 231.51416016 C99.82724923 238.00457764 99.81540134 244.49494582 99.81024551 250.98539734 C99.80657535 253.45066605 99.79940914 255.91593233 99.78853989 258.38117981 C99.11686291 284.0335659 99.11686291 284.0335659 107 308 C107.66 308 108.32 308 109 308 C109.20625 308.5775 109.4125 309.155 109.625 309.75 C113.3457414 315.83848593 121.4242633 318.27508385 128 320 C142.17145538 322.10673728 158.05437006 322.38865774 172 319 C172.80695313 318.84015625 173.61390625 318.6803125 174.4453125 318.515625 C184.72479194 316.06970385 194.25796636 309.01475169 202 302 C202 301.34 202 300.68 202 300 C202.66 300 203.32 300 204 300 C218.97121933 282.85617629 223.52861043 260.78144015 222.21435547 238.62744141 C220.42401055 216.68246194 212.15373893 199.39579046 195.546875 184.8515625 C175.22027846 168.46583672 150.96832465 167.40067903 125.9375 167.75 C123.41342573 167.77010827 120.88933588 167.78835133 118.36523438 167.8046875 C112.24314388 167.84830986 106.12164689 167.91487458 100 168 Z " fill="#FEFEFE" transform="translate(322,344)"/>
<path d="M0 0 C2.50698209 2.50698209 2.24102514 4.01648088 2.26568735 7.43684042 C2.25869253 8.58310822 2.25869253 8.58310822 2.2515564 9.75253296 C2.25452654 10.56248549 2.25749667 11.37243802 2.26055682 12.20693457 C2.26823037 14.93669248 2.26168895 17.66623732 2.25537109 20.39599609 C2.25811958 22.34724067 2.26179861 24.29848412 2.26634216 26.24972534 C2.27447151 30.46111943 2.27661818 34.67246036 2.27439499 38.88386154 C2.27156667 45.54954122 2.2858981 52.21511447 2.30337524 58.88076782 C2.35044132 77.83895245 2.37432796 96.79713068 2.38085938 115.75537109 C2.38461646 126.21886693 2.40270299 136.68224313 2.43595374 147.1456877 C2.45612573 153.76418482 2.45855764 160.38237241 2.44767356 167.00088763 C2.44505592 171.13366847 2.45912288 175.26627138 2.47775459 179.39900589 C2.4830524 181.30645344 2.48162137 183.21393427 2.47271919 185.12136841 C2.01681705 202.07590231 2.01681705 202.07590231 9.5 216.625 C10.325 217.07875 11.15 217.5325 12 218 C12.60424805 218.33628418 13.20849609 218.67256836 13.83105469 219.01904297 C16.29425995 220.13308605 18.54098715 220.60598613 21.203125 221.0703125 C22.1828125 221.24433594 23.1625 221.41835938 24.171875 221.59765625 C25.18765625 221.77167969 26.2034375 221.94570313 27.25 222.125 C28.28125 222.30675781 29.3125 222.48851562 30.375 222.67578125 C32.91574567 223.12276428 35.45735822 223.56395534 38 224 C38.02687279 225.81242052 38.04633715 227.62495233 38.0625 229.4375 C38.07410156 230.44683594 38.08570313 231.45617187 38.09765625 232.49609375 C38 235 38 235 37 236 C35.4714651 236.09798388 33.93841036 236.12631831 32.40673828 236.12698364 C31.4139386 236.12980347 30.42113892 236.13262329 29.39825439 236.13552856 C28.30003357 236.13350433 27.20181274 236.1314801 26.0703125 236.12939453 C24.92085144 236.13114685 23.77139038 236.13289917 22.58709717 236.13470459 C18.766383 236.1391259 14.94571468 236.13618413 11.125 236.1328125 C8.48323559 236.13348546 5.84147123 236.13445542 3.19970703 236.13571167 C-2.34538271 236.13753321 -7.89045915 236.13512747 -13.43554688 236.13037109 C-19.85494744 236.1249285 -26.27431625 236.12669117 -32.69371605 236.1321975 C-38.85800983 236.13727426 -45.02228948 236.13674711 -51.18658447 236.13381577 C-53.8149618 236.13314622 -56.44333992 236.13397588 -59.07171631 236.13629532 C-62.73793723 236.13882019 -66.40409622 236.13498357 -70.0703125 236.12939453 C-71.16853333 236.13141876 -72.26675415 236.13344299 -73.39825439 236.13552856 C-74.88745392 236.13129883 -74.88745392 236.13129883 -76.40673828 236.12698364 C-77.27469025 236.12660662 -78.14264221 236.12622959 -79.03689575 236.12584114 C-81 236 -81 236 -82 235 C-82.203125 232.78515625 -82.203125 232.78515625 -82.25 230.0625 C-82.27578125 229.16660156 -82.3015625 228.27070312 -82.328125 227.34765625 C-82.21984375 226.57292969 -82.1115625 225.79820312 -82 225 C-79.0326575 223.02177167 -77.76359197 222.63459121 -74.359375 222.140625 C-73.45316406 221.99367188 -72.54695312 221.84671875 -71.61328125 221.6953125 C-69.72201188 221.40117238 -67.82872907 221.11966764 -65.93359375 220.8515625 C-60.86201823 220.00510435 -56.18707991 219.10327233 -52.55976868 215.24386597 C-43.59778888 202.35126095 -46.42762767 182.36801142 -46.49562955 167.43693972 C-46.50964804 163.58730121 -46.50300176 159.73768594 -46.49949646 155.88803101 C-46.49680938 149.43455392 -46.51014614 142.98126445 -46.53344727 136.52783203 C-46.56011545 129.09086023 -46.56177701 121.65420038 -46.5500589 114.21719706 C-46.53924767 107.02183688 -46.54549 99.82658837 -46.55961418 92.63123703 C-46.56533824 89.58602601 -46.56531994 86.54089769 -46.56054878 83.49568558 C-46.55574489 79.9085179 -46.5660201 76.32168829 -46.58750343 72.73458481 C-46.59563575 70.80675618 -46.5892597 68.87888304 -46.58230591 66.9510498 C-46.65270082 58.64545257 -47.45408146 51.21393414 -51.8125 44 C-56.40722206 39.79911126 -61.32284595 39.75113853 -67.2578125 39.859375 C-71.13697516 40.05830642 -74.98876778 40.4405192 -78.84765625 40.87890625 C-79.91306641 40.93884766 -79.91306641 40.93884766 -81 41 C-82 40 -82 40 -82.09765625 37.49609375 C-82.08605469 36.48675781 -82.07445312 35.47742188 -82.0625 34.4375 C-82.05347656 33.42558594 -82.04445313 32.41367187 -82.03515625 31.37109375 C-82.02355469 30.58863281 -82.01195312 29.80617188 -82 29 C-76.73140418 26.25679815 -71.56373662 24.00768381 -65.9375 22.125 C-59.12183777 19.78316624 -52.44606899 17.22393329 -45.76953125 14.5078125 C-41.75074529 12.88335462 -37.69045877 11.37794751 -33.625 9.875 C-29.42579134 8.31999613 -25.26325947 6.73488311 -21.1875 4.875 C-5.83595024 -2.0949565 -5.83595024 -2.0949565 0 0 Z " fill="#FEFEFE" transform="translate(678,447)"/>
<path d="M0 0 C5.50007995 4.31119804 9.59922778 10.80144495 10.8515625 17.71484375 C11.50351945 27.08045614 11.26924801 35.66941544 5.2890625 43.27734375 C4.4846875 44.08171875 3.6803125 44.88609375 2.8515625 45.71484375 C2.1915625 45.71484375 1.5315625 45.71484375 0.8515625 45.71484375 C0.8515625 46.37484375 0.8515625 47.03484375 0.8515625 47.71484375 C-0.39579317 48.36576965 -1.64645582 49.01036044 -2.8984375 49.65234375 C-3.59453125 50.01199219 -4.290625 50.37164062 -5.0078125 50.7421875 C-11.72949254 53.79638153 -19.98142033 53.79871749 -27.046875 51.9609375 C-35.32308739 48.79211744 -41.04560081 44.23204848 -44.8359375 36.08984375 C-48.19498011 26.10602266 -47.40613079 17.35538653 -43.1484375 7.71484375 C-39.76909521 2.93897015 -39.76909521 2.93897015 -36.8984375 1.90234375 C-36.0321875 1.80953125 -36.0321875 1.80953125 -35.1484375 1.71484375 C-35.1484375 1.05484375 -35.1484375 0.39484375 -35.1484375 -0.28515625 C-33.73365615 -0.93510922 -32.31652263 -1.57994347 -30.8984375 -2.22265625 C-30.10953125 -2.58230469 -29.320625 -2.94195312 -28.5078125 -3.3125 C-18.87045873 -7.28551505 -8.81062935 -5.27035828 0 0 Z " fill="#FEFEFE" transform="translate(671.1484375,346.28515625)"/>
</svg>
